<svg data-v-0dd9719b="" version="1.0" xmlns="http://www.w3.org/2000/svg" xmlns:xlink="http://www.w3.org/1999/xlink" width="100%" height="100%" viewBox="0 0 340.000000 250.000000" preserveAspectRatio="xMidYMid meet" color-interpolation-filters="sRGB" style="margin: auto;"> <rect data-v-0dd9719b="" x="0" y="0" width="100%" height="100%" fill="#fff" fill-opacity="1" class="background"></rect> <rect data-v-0dd9719b="" x="0" y="0" width="100%" height="100%" fill="url(#watermark)" fill-opacity="1" class="watermarklayer"></rect> <g data-v-0dd9719b="" fill="#333" class="icon-text-wrapper icon-svg-group iconsvg" transform="translate(48.839996337890625,96.76789283752441)"><g class="iconsvg-imagesvg" transform="translate(0,0)"><g><rect fill="#333" fill-opacity="0" stroke-width="2" x="0" y="0" width="60" height="56.464211100863906" class="image-rect"></rect> <svg x="0" y="0" width="60" height="56.464211100863906" filtersec="colorsb4195278520" class="image-svg-svg primary" style="overflow: visible;"><svg xmlns="http://www.w3.org/2000/svg" viewBox="0.28515467047691345 0.27830439805984497 105.97604370117188 99.73069763183594"><path d="M91.2 16a53.15 53.15 0 0 1-1 75.14l-4.65-4.78A46.43 46.43 0 1 0 6.68 52.57a46.06 46.06 0 0 0 13.17 33l-4.78 4.67A53.17 53.17 0 0 1 91.2 16z" fill="#2b3990"></path><path d="M25.37 24.66A39.76 39.76 0 1 1 80.89 81.6l-4.65-4.78a33.09 33.09 0 1 0-46.83-.56l-4.78 4.66a39.79 39.79 0 0 1 .74-56.26z" fill="#2b3990"></path><path d="M34.68 34.21a26.43 26.43 0 1 1 36.9 37.84l-4.66-4.78A19.74 19.74 0 1 0 39 66.94l-4.81 4.66a26.44 26.44 0 0 1 .49-37.39z" fill="#2b3990"></path><path d="M44 43.76A13.09 13.09 0 1 1 62.27 62.5l-4.66-4.77a6.42 6.42 0 1 0-9.08-.11l-4.78 4.66A13.1 13.1 0 0 1 44 43.76z" fill="#2b3990"></path><path fill="#00aeef" d="M56.678 94.65l4.868-4.748 4.741 4.862-4.868 4.747zM38.09 94.553l4.868-4.747 4.74 4.86-4.868 4.748zM57.034 76.076l4.868-4.747 4.748 4.868-4.869 4.748zM66.147 85.413l4.868-4.748 4.74 4.862-4.868 4.747zM75.613 95.14l4.868-4.747 4.748 4.868-4.868 4.748zM48.142 66.954l4.868-4.748 4.74 4.861-4.868 4.748zM38.673 76.19l4.868-4.747 4.741 4.861-4.868 4.748zM52.44 80.57v-.01l-4.88 4.75.01.01 4.74 4.87 4.88-4.75-4.75-4.87zM29.207 85.43l4.869-4.747 4.74 4.861-4.868 4.748zM19.246 95.136l4.868-4.748 4.74 4.862-4.868 4.747z"></path></svg></svg> <!----></g></g> <g transform="translate(67,17.19210720062256)"><g data-gra="path-name" fill-rule="" class="tp-name iconsvg-namesvg"><g transform="scale(1)"><g><path d="M19.31-21.86Q20.2-21.86 20.73-21.33 21.25-20.79 21.25-19.89L21.25-19.89 21.25-1.82Q21.25-0.92 20.71-0.37 20.17 0.18 19.31 0.18L19.31 0.18Q18.42 0.18 17.89-0.37 17.37-0.92 17.37-1.82L17.37-1.82 17.37-9.42 6.25-9.42 6.25-1.82Q6.25-0.92 5.71-0.37 5.17 0.18 4.28 0.18L4.28 0.18Q3.42 0.18 2.88-0.37 2.34-0.92 2.34-1.82L2.34-1.82 2.34-19.89Q2.34-20.79 2.86-21.33 3.39-21.86 4.28-21.86L4.28-21.86Q5.17-21.86 5.71-21.33 6.25-20.79 6.25-19.89L6.25-19.89 6.25-12.63 17.37-12.63 17.37-19.89Q17.37-20.79 17.89-21.33 18.42-21.86 19.31-21.86L19.31-21.86ZM27.84 0Q26.95 0 26.44-0.49 25.93-0.99 25.93-1.88L25.93-1.88 25.93-19.83Q25.93-20.73 26.44-21.22 26.95-21.71 27.84-21.71L27.84-21.71 38.96-21.71Q39.85-21.71 40.34-21.31 40.83-20.91 40.83-20.17L40.83-20.17Q40.83-19.4 40.34-18.99 39.85-18.57 38.96-18.57L38.96-18.57 29.81-18.57 29.81-12.6 38.34-12.6Q39.23-12.6 39.73-12.2 40.22-11.79 40.22-11.02L40.22-11.02Q40.22-10.29 39.73-9.89 39.23-9.49 38.34-9.49L38.34-9.49 29.81-9.49 29.81-3.14 38.96-3.14Q39.85-3.14 40.34-2.73 40.83-2.31 40.83-1.54L40.83-1.54Q40.83-0.8 40.34-0.4 39.85 0 38.96 0L38.96 0 27.84 0ZM46.04 0.18Q45.15 0.18 44.61-0.35 44.07-0.89 44.07-1.82L44.07-1.82 44.07-19.83Q44.07-20.73 44.58-21.22 45.08-21.71 45.98-21.71L45.98-21.71 53.55-21.71Q57.03-21.71 58.97-19.97 60.91-18.23 60.91-15.09L60.91-15.09Q60.91-11.95 58.97-10.19 57.03-8.44 53.55-8.44L53.55-8.44 48.04-8.44 48.04-1.82Q48.04-0.89 47.5-0.35 46.96 0.18 46.04 0.18L46.04 0.18ZM53.06-11.49Q57.16-11.49 57.16-15.06L57.16-15.06Q57.16-18.63 53.06-18.63L53.06-18.63 48.04-18.63 48.04-11.49 53.06-11.49ZM81.36-21.86Q82.25-21.86 82.78-21.33 83.3-20.79 83.3-19.89L83.3-19.89 83.3-1.82Q83.3-0.92 82.76-0.37 82.22 0.18 81.36 0.18L81.36 0.18Q80.47 0.18 79.95-0.37 79.42-0.92 79.42-1.82L79.42-1.82 79.42-9.42 68.3-9.42 68.3-1.82Q68.3-0.92 67.77-0.37 67.23 0.18 66.33 0.18L66.33 0.18Q65.47 0.18 64.93-0.37 64.39-0.92 64.39-1.82L64.39-1.82 64.39-19.89Q64.39-20.79 64.92-21.33 65.44-21.86 66.33-21.86L66.33-21.86Q67.23-21.86 67.77-21.33 68.3-20.79 68.3-19.89L68.3-19.89 68.3-12.63 79.42-12.63 79.42-19.89Q79.42-20.79 79.95-21.33 80.47-21.86 81.36-21.86L81.36-21.86ZM101.63-3.17Q103.47-3.17 103.47-1.6L103.47-1.6Q103.47 0 101.63 0L101.63 0 88.51 0Q87.71 0 87.23-0.48 86.75-0.95 86.75-1.69L86.75-1.69Q86.75-2.43 87.24-3.11L87.24-3.11 98.27-18.54 88.63-18.54Q86.78-18.54 86.78-20.11L86.78-20.11Q86.78-21.71 88.63-21.71L88.63-21.71 101.35-21.71Q102.15-21.71 102.63-21.23 103.1-20.76 103.1-20.05L103.1-20.05Q103.1-19.34 102.58-18.63L102.58-18.63 91.56-3.17 101.63-3.17ZM108.49 0.18Q107.6 0.18 107.06-0.37 106.52-0.92 106.52-1.82L106.52-1.82 106.52-19.89Q106.52-20.79 107.06-21.33 107.6-21.86 108.49-21.86L108.49-21.86Q109.42-21.86 109.96-21.33 110.49-20.79 110.49-19.89L110.49-19.89 110.49-1.82Q110.49-0.92 109.96-0.37 109.42 0.18 108.49 0.18L108.49 0.18ZM128.54-11.21Q130.42-10.69 131.45-9.3 132.48-7.91 132.48-5.91L132.48-5.91Q132.48-3.14 130.5-1.57 128.51 0 125.03 0L125.03 0 117.08 0Q116.19 0 115.68-0.49 115.18-0.99 115.18-1.88L115.18-1.88 115.18-19.83Q115.18-20.73 115.68-21.22 116.19-21.71 117.08-21.71L117.08-21.71 124.72-21.71Q128.11-21.71 130.03-20.22 131.96-18.72 131.96-16.04L131.96-16.04Q131.96-14.32 131.05-13.06 130.14-11.79 128.54-11.21L128.54-11.21ZM119.06-18.63L119.06-12.56 124.08-12.56Q128.17-12.56 128.17-15.61L128.17-15.61Q128.17-17.15 127.15-17.89 126.14-18.63 124.08-18.63L124.08-18.63 119.06-18.63ZM124.6-3.08Q126.75-3.08 127.74-3.85 128.73-4.62 128.73-6.25L128.73-6.25Q128.73-7.88 127.72-8.68 126.72-9.49 124.6-9.49L124.6-9.49 119.06-9.49 119.06-3.08 124.6-3.08ZM155.58-2.37Q155.76-1.97 155.76-1.57L155.76-1.57Q155.76-0.86 155.19-0.37 154.62 0.12 153.89 0.12L153.89 0.12Q153.39 0.12 152.96-0.14 152.53-0.4 152.28-0.95L152.28-0.95 150.44-5.08 139.6-5.08 137.75-0.95Q137.5-0.4 137.07-0.14 136.64 0.12 136.12 0.12L136.12 0.12Q135.41 0.12 134.82-0.37 134.24-0.86 134.24-1.57L134.24-1.57Q134.24-1.97 134.42-2.37L134.42-2.37 142.92-20.63Q143.2-21.25 143.77-21.57 144.34-21.9 144.99-21.9L144.99-21.9Q145.63-21.9 146.2-21.57 146.77-21.25 147.05-20.63L147.05-20.63 155.58-2.37ZM145.02-17.31L140.95-8.16 149.08-8.16 145.02-17.31ZM175.72-21.86Q176.61-21.86 177.14-21.33 177.66-20.79 177.66-19.89L177.66-19.89 177.66-1.82Q177.66-0.92 177.12-0.37 176.58 0.18 175.72 0.18L175.72 0.18Q174.83 0.18 174.3-0.37 173.78-0.92 173.78-1.82L173.78-1.82 173.78-9.42 162.66-9.42 162.66-1.82Q162.66-0.92 162.12-0.37 161.58 0.18 160.69 0.18L160.69 0.18Q159.83 0.18 159.29-0.37 158.75-0.92 158.75-1.82L158.75-1.82 158.75-19.89Q158.75-20.79 159.27-21.33 159.8-21.86 160.69-21.86L160.69-21.86Q161.58-21.86 162.12-21.33 162.66-20.79 162.66-19.89L162.66-19.89 162.66-12.63 173.78-12.63 173.78-19.89Q173.78-20.79 174.3-21.33 174.83-21.86 175.72-21.86L175.72-21.86Z" transform="translate(-2.3399999141693115, 21.899999618530273)"></path></g> <!----> <!----> <!----> <!----> <!----> <!----> <!----></g></g> <!----></g></g><defs v-gra="od"></defs></svg>